<svg xmlns="http://www.w3.org/2000/svg" xmlns:xlink="http://www.w3.org/1999/xlink" id="Layer_4" x="0px" y="0px" viewBox="0 0 400 103.1" style="enable-background:new 0 0 400 103.1;" xml:space="preserve"><style type="text/css">	.st0{fill:#F18000;}	.st1{fill:#FFFFFF;}</style><g>	<polygon class="st0" points="377.4,25.8 370,36.3 380,36.3 387.5,25.8  "></polygon>	<path class="st1" d="M377.4,25.8L370,36.3h-3v25.2h-11.8V1.1H367v24.7H377.4z M387.5,1.1h11.8v60.4h-11.8V36.2V25.8V1.1z    M35.4,61.5L23.6,37.4h-8.5v24.1H3.4V1.1H27c12.3,0,19.6,8.4,19.6,18.5c0,8.5-5.2,13.8-11,15.9l13.5,26.1H35.4z M26.3,11.6H15.1v16   h11.1c5.2,0,8.6-3.3,8.6-8C34.8,14.9,31.4,11.6,26.3,11.6z M141.2,62c-12.4,0-22.2-8.4-22.2-21.2V1.1h11.8v39.3   c0,7,4.1,11.1,10.4,11.1c6.4,0,10.5-4.2,10.5-11.1V1.1h11.7v39.7C163.4,53.6,153.6,62,141.2,62z M206.7,11.6v49.9h-11.8V11.6h-15.8   V1.1h43.4v10.5H206.7z M324.8,42l11.8-0.1c-0.4,8.3-5,14.7-11.8,17.9c-3.1,1.5-6.6,2.2-10.4,2.2c-3.8,0-7.4-0.8-10.5-2.3   c-7-3.3-11.7-10.1-11.7-18.9v-19c0-8.9,4.8-15.7,11.8-19c3.1-1.5,6.6-2.2,10.4-2.2c3.8,0,7.4,0.8,10.5,2.3   c7,3.3,11.7,10.1,11.7,18.9h-11.8c-0.2-6.7-4.2-10.7-10.4-10.7c-5.8,0-9.8,3.5-10.4,9.4v19.8c0,7,4.1,11.1,10.4,11.1   C320.2,51.5,324.1,48,324.8,42z M62.3,61.5V1.1h39.8v10.5h-28v14.2h20.2v10.5H74.1V51h28v10.5H62.3z M234.5,61.5V1.1h39.8v10.5h-28   v14.2h20.2v10.5h-20.2V51h28v10.5H234.5z"></path>	<path class="st0" d="M399.3,95.9c0,4.2-3.5,6.6-8,6.6c-3.3,0-5.8-0.7-7.9-2.9l2.7-2.7c1.4,1.4,3.2,1.8,5.2,1.8   c2.5,0,3.8-0.9,3.8-2.7c0-0.8-0.2-1.4-0.7-1.8c-0.4-0.4-0.9-0.6-1.9-0.8l-2.6-0.4c-1.9-0.3-3.2-0.9-4.2-1.8c-1-1-1.6-2.4-1.6-4.3   c0-3.9,2.9-6.6,7.6-6.6c3,0,5.1,0.7,7,2.5l-2.7,2.6c-1.4-1.3-3-1.5-4.4-1.5c-2.3,0-3.4,1.2-3.4,2.7c0,0.5,0.2,1.1,0.6,1.6   c0.4,0.4,1.1,0.7,2,0.9l2.6,0.4c2,0.3,3.2,0.8,4.1,1.7C398.8,92.4,399.3,94,399.3,95.9z M135.4,102.3h-4.9l-4.2-8.6h-3v8.6H119   V80.7h8.5c4.4,0,7,3,7,6.6c0,3-1.9,4.9-4,5.7L135.4,102.3z M130.3,87.3c0-1.7-1.2-2.9-3.1-2.9h-4v5.7h4   C129,90.2,130.3,89,130.3,87.3z M159.4,102.3h-4.4l-1.3-3.8H146l-1.3,3.8h-4.4l7.9-21.7h3.3L159.4,102.3z M152.5,94.9l-2.7-7.9   l-2.7,7.9H152.5z M181.5,91.4c0,3.3,0.2,6.4-2.2,8.9c-1.4,1.4-3.5,2.1-5.7,2.1h-7.8V80.7h7.8c2.3,0,4.3,0.6,5.7,2.1   C181.8,85.2,181.5,88.1,181.5,91.4z M177.3,91.4c0-3.3-0.1-4.7-0.9-5.6c-0.7-0.9-1.7-1.3-3.2-1.3H170v14.1h3.2   c1.5,0,2.4-0.5,3.2-1.3C177.2,96.3,177.3,94.7,177.3,91.4z M206,102.3h-4.4l-1.3-3.8h-7.7l-1.3,3.8h-4.4l7.9-21.7h3.3L206,102.3z    M199.2,94.9l-2.6-7.9l-2.7,7.9H199.2z M228.8,102.3h-4.9l-4.2-8.6h-3v8.6h-4.2V80.7h8.5c4.4,0,7,3,7,6.6c0,3-1.9,4.9-4,5.7   L228.8,102.3z M223.7,87.3c0-1.7-1.2-2.9-3.1-2.9h-4v5.7h4C222.5,90.2,223.7,89,223.7,87.3z M263.6,95.9c0,4.2-3.5,6.6-8,6.6   c-3.3,0-5.8-0.7-7.9-2.9l2.7-2.7c1.4,1.4,3.2,1.8,5.2,1.8c2.5,0,3.8-0.9,3.8-2.7c0-0.8-0.2-1.4-0.7-1.8c-0.4-0.4-0.9-0.6-1.9-0.8   l-2.6-0.4c-1.9-0.3-3.2-0.9-4.2-1.8c-1-1-1.6-2.4-1.6-4.3c0-3.9,2.9-6.6,7.6-6.6c3,0,5.1,0.7,7,2.5l-2.7,2.6   c-1.4-1.3-3-1.5-4.4-1.5c-2.3,0-3.4,1.2-3.4,2.7c0,0.5,0.2,1.1,0.6,1.6c0.4,0.4,1.1,0.7,2,0.9l2.6,0.4c2,0.3,3.2,0.8,4.1,1.7   C263.1,92.4,263.6,94,263.6,95.9z M285.5,80.7L279,93.4v8.9h-4.2v-8.9l-6.5-12.8h4.6l4.1,8.7l4-8.7H285.5z M305.9,95.9   c0,4.2-3.5,6.6-8,6.6c-3.3,0-5.8-0.7-7.9-2.9l2.7-2.7c1.4,1.4,3.2,1.8,5.2,1.8c2.5,0,3.8-0.9,3.8-2.7c0-0.8-0.2-1.4-0.7-1.8   c-0.4-0.4-0.9-0.6-1.9-0.8l-2.6-0.4c-1.9-0.3-3.2-0.9-4.2-1.8c-1-1-1.6-2.4-1.6-4.3c0-3.9,2.9-6.6,7.6-6.6c3,0,5.1,0.7,7,2.5   l-2.7,2.6c-1.4-1.3-3-1.5-4.4-1.5c-2.3,0-3.4,1.2-3.4,2.7c0,0.5,0.2,1.1,0.6,1.6c0.4,0.4,1.1,0.7,2,0.9l2.6,0.4   c2,0.3,3.2,0.8,4.1,1.7C305.4,92.4,305.9,94,305.9,95.9z M327.5,84.4h-5.7v17.9h-4.2V84.4H312v-3.8h15.6V84.4z M349,102.3h-14.3   V80.7H349v3.8h-10.1v5.1h8.6v3.8h-8.6v5.3H349V102.3z M376.5,102.3h-4.2V89.7l-4.1,8.2h-2.9l-4.2-8.2v12.6h-4.2V80.7h4.2l5.7,11.7   l5.6-11.7h4.2V102.3z"></path></g></svg>